<svg width="40" height="40" viewBox="0 0 40 40" fill="none" xmlns="http://www.w3.org/2000/svg">
<path d="M27.465 12.2851L27.5667 12.3758C27.9898 12.7989 28.02 13.466 27.6574 13.924L27.5667 14.0257L21.792 19.8004L27.5667 25.5751C27.9898 25.9982 28.02 26.6653 27.6574 27.1233L27.5667 27.225C27.1436 27.6481 26.4765 27.6783 26.0186 27.3157L25.9168 27.225L20.1421 21.4503L14.3674 27.225C13.9443 27.6481 13.2772 27.6783 12.8192 27.3157L12.7175 27.225C12.2944 26.802 12.2642 26.1348 12.6268 25.6769L12.7175 25.5751L18.4922 19.8004L12.7175 14.0257C12.2944 13.6026 12.2642 12.9355 12.6268 12.4776L12.7175 12.3758C13.1405 11.9527 13.8077 11.9225 14.2656 12.2851L14.3674 12.3758L20.1421 18.1505L25.9168 12.3758C26.3399 11.9527 27.007 11.9225 27.465 12.2851L27.5667 12.3758L27.465 12.2851Z" fill="#221E1D"/>
<path d="M27.465 12.2851L27.5667 12.3758C27.9898 12.7989 28.02 13.466 27.6574 13.924L27.5667 14.0257L21.792 19.8004L27.5667 25.5751C27.9898 25.9982 28.02 26.6653 27.6574 27.1233L27.5667 27.225C27.1436 27.6481 26.4765 27.6783 26.0186 27.3157L25.9168 27.225L20.1421 21.4503L14.3674 27.225C13.9443 27.6481 13.2772 27.6783 12.8192 27.3157L12.7175 27.225C12.2944 26.802 12.2642 26.1348 12.6268 25.6769L12.7175 25.5751L18.4922 19.8004L12.7175 14.0257C12.2944 13.6026 12.2642 12.9355 12.6268 12.4776L12.7175 12.3758C13.1405 11.9527 13.8077 11.9225 14.2656 12.2851L14.3674 12.3758L20.1421 18.1505L25.9168 12.3758C26.3399 11.9527 27.007 11.9225 27.465 12.2851ZM27.465 12.2851L27.5667 12.3758L27.465 12.2851Z" stroke="#221E1D"/>
</svg>
