<svg width="28" height="28" viewBox="0 0 28 28" fill="none" xmlns="http://www.w3.org/2000/svg">
<g clip-path="url(#clip0_289_100)">
<path d="M24.1677 14.5791L26 13.5L24.1677 12.4209C23.1892 11.844 22.8528 10.5905 23.4125 9.6015L24.46 7.75L22.3325 7.73083C21.1968 7.72125 20.2788 6.80317 20.2692 5.66754L20.25 3.541L18.3985 4.58846C17.4105 5.14717 16.156 4.81175 15.58 3.83329L14.5 2L13.42 3.83329C12.843 4.81175 11.5895 5.14812 10.6015 4.58846L8.75 3.541L8.73083 5.66754C8.72125 6.80317 7.80317 7.72125 6.66754 7.73083L4.54004 7.75L5.5875 9.6015C6.14717 10.5905 5.81079 11.844 4.83233 12.4209L3 13.5L4.83233 14.5791C5.81079 15.156 6.14717 16.4095 5.5875 17.3985L4.54004 19.25L6.66754 19.2692C7.80317 19.2788 8.72125 20.1968 8.73083 21.3325L8.75 23.459L10.6015 22.4115C11.5895 21.8528 12.844 22.1882 13.42 23.1667L14.5 25L15.58 23.1667C16.157 22.1882 17.4105 21.8519 18.3985 22.4115L20.25 23.459L20.2692 21.3325C20.2797 20.1968 21.1978 19.2788 22.3325 19.2692L24.46 19.25L23.4125 17.3985C22.8528 16.4105 23.1882 15.156 24.1677 14.5791V14.5791ZM14.4722 21.1667C10.245 21.1667 6.80554 17.7272 6.80554 13.5C6.80554 9.27279 10.244 5.83333 14.4722 5.83333C18.7004 5.83333 22.1389 9.27279 22.1389 13.5C22.1389 17.7272 18.6994 21.1667 14.4722 21.1667ZM20.25 13.5C20.25 16.675 17.675 19.25 14.5 19.25C11.325 19.25 8.75 16.675 8.75 13.5C8.75 10.325 11.325 7.75 14.5 7.75C17.675 7.75 20.25 10.325 20.25 13.5Z" fill="#FFFCF3"/>
</g>
<defs>
<clipPath id="clip0_289_100">
<rect width="23" height="23" fill="white" transform="translate(3 2)"/>
</clipPath>
</defs>
</svg>
