<svg width="28" height="28" viewBox="0 0 28 28" fill="none" xmlns="http://www.w3.org/2000/svg">
<g clip-path="url(#clip0_289_96)">
<path d="M14.5 12.6241C15.7574 13.0074 16.7417 13.9926 17.1241 15.25C17.5091 13.9926 18.4935 13.0082 19.75 12.625C18.4935 12.2409 17.5091 11.2574 17.1241 10C16.7417 11.2565 15.7574 12.2409 14.5 12.6241ZM21.5009 12.625C22.3391 12.8814 22.9945 13.5368 23.2509 14.3759C23.5055 13.5368 24.1626 12.8805 25 12.625C24.1626 12.3695 23.5064 11.7133 23.25 10.875C22.9936 11.7133 22.3382 12.3695 21.5009 12.625ZM20.6259 4.75C20.2435 6.00738 19.2583 6.99175 18.0026 7.37587C19.2609 7.76087 20.2435 8.74438 20.6285 10.0026C21.0109 8.74438 21.9961 7.76 23.25 7.37587C21.9961 6.9935 21.0109 6.00738 20.6259 4.75V4.75ZM14.5 24C8.71012 24 4 19.2899 4 13.5C4 7.71012 8.71012 3 14.5 3C16.1573 3 17.6763 3.43488 19.1988 4.03163C16.6193 4.47263 11 6.88938 11 13.5C11 20.0222 16.1774 22.432 19.1988 22.9684C17.8863 23.7086 16.1573 24 14.5 24V24Z" fill="#292725"/>
</g>
<defs>
<clipPath id="clip0_289_96">
<rect width="21" height="21" fill="white" transform="translate(4 3)"/>
</clipPath>
</defs>
</svg>
