<svg width="28" height="28" viewBox="0 0 28 28" fill="none" xmlns="http://www.w3.org/2000/svg">
<g clip-path="url(#clip0_287_62)">
<g clip-path="url(#clip1_287_62)">
<path d="M21.3229 6.48435L21.4246 6.57501C21.8477 6.99808 21.8779 7.66523 21.5153 8.12317L21.4246 8.22493L15.6499 13.9996L21.4246 19.7743C21.8477 20.1974 21.8779 20.8646 21.5153 21.3225L21.4246 21.4243C21.0016 21.8473 20.3344 21.8775 19.8765 21.5149L19.7747 21.4243L14 15.6495L8.22529 21.4243C7.80223 21.8473 7.13507 21.8775 6.67714 21.5149L6.57538 21.4243C6.15231 21.0012 6.12209 20.334 6.48472 19.8761L6.57538 19.7743L12.3501 13.9996L6.57538 8.22493C6.15231 7.80186 6.12209 7.13471 6.48472 6.67677L6.57538 6.57501C6.99845 6.15194 7.6656 6.12172 8.12354 6.48435L8.22529 6.57501L14 12.3497L19.7747 6.57501C20.1978 6.15194 20.8649 6.12172 21.3229 6.48435L21.4246 6.57501L21.3229 6.48435Z" fill="#292725"/>
<path d="M21.3229 6.48435L21.4246 6.57501C21.8477 6.99808 21.8779 7.66523 21.5153 8.12317L21.4246 8.22493L15.6499 13.9996L21.4246 19.7743C21.8477 20.1974 21.8779 20.8646 21.5153 21.3225L21.4246 21.4243C21.0016 21.8473 20.3344 21.8775 19.8765 21.5149L19.7747 21.4243L14 15.6495L8.22529 21.4243C7.80223 21.8473 7.13507 21.8775 6.67714 21.5149L6.57538 21.4243C6.15231 21.0012 6.12209 20.334 6.48472 19.8761L6.57538 19.7743L12.3501 13.9996L6.57538 8.22493C6.15231 7.80186 6.12209 7.13471 6.48472 6.67677L6.57538 6.57501C6.99845 6.15194 7.6656 6.12172 8.12354 6.48435L8.22529 6.57501L14 12.3497L19.7747 6.57501C20.1978 6.15194 20.8649 6.12172 21.3229 6.48435ZM21.3229 6.48435L21.4246 6.57501L21.3229 6.48435Z" stroke="#292725"/>
</g>
</g>
<defs>
<clipPath id="clip0_287_62">
<rect width="28" height="28" fill="white"/>
</clipPath>
<clipPath id="clip1_287_62">
<rect width="28" height="28" fill="white"/>
</clipPath>
</defs>
</svg>
